#!OML:ASF X:\für Bonn\!DataBase\2005_08_11_Bastian_Final\c3d\Bastian.ASF
:FULLY-SPECIFIED
:DEGREES
306
root 12.801 17.365 -1.96246 181.922 76.0885 -169.019
lowerback 14.3121 0.0760861 3.89889
upperback 12.4622 1.51824 1.0983
thorax 5.30639 1.44742 -1.12233
lowerneck -3.53207 -9.01675 -6.81807
upperneck -3.02009 -11.7014 12.508
head 0.852788 -5.74903 4.5171
rclavicle -1.32192e-014 2.5842e-014
rhumerus -26.4822 18.0222 -89.1303
rradius 28.2438
rwrist -8.23534
rhand -17.9543 2.07066
rfingers 7.12502
rthumb 8.31447 -27.7457
lclavicle -1.32192e-014 2.5842e-014
lhumerus -16.8213 -3.79474 86.2081
lradius 14.1829
lwrist 12.0487
lhand -12.4352 -6.78289
lfingers 7.12502
lthumb 13.6376 22.7504
rfemur 11.9653 -0.683609 29.884
rtibia 21.4063
rfoot -18.0797 -10.8423
rtoes 5.39964
lfemur -22.0147 0.319906 -15.9602
ltibia 43.1563
lfoot -8.89712 -6.54422
ltoes -16.3459
307
root 12.9002 17.3586 -1.96906 181.987 76.1497 -169.01
lowerback 14.1218 0.119923 3.85121
upperback 12.3758 1.54793 0.997218
thorax 5.31494 1.45457 -1.20313
lowerneck -3.40987 -8.95604 -6.63229
upperneck -3.04035 -11.6274 12.3954
head 0.801492 -5.71848 4.46596
rclavicle -1.2921e-014 -1.55052e-014
rhumerus -26.4775 18.091 -89.4011
rradius 28.2752
rwrist -8.10578
rhand -17.8161 2.10607
rfingers 7.12502
rthumb 8.44784 -27.705
lclavicle -1.2921e-014 -1.55052e-014
lhumerus -16.9818 -1.24373 85.5063
lradius 12.5163
lwrist 9.58579
lhand -12.3516 -6.91742
lfingers 7.12502
lthumb 13.7182 22.6104
rfemur 12.552 -0.78529 29.9083
rtibia 20.8196
rfoot -18.0433 -10.7626
rtoes 5.2198
lfemur -22.3726 0.513762 -16.0356
ltibia 42.008
lfoot -8.79984 -6.29378
ltoes -16.7944
308
root 13.0007 17.3509 -1.9768 182.166 76.2301 -168.845
lowerback 13.9985 0.156238 3.81179
upperback 12.2763 1.57191 0.922957
thorax 5.27258 1.45743 -1.26186
lowerneck -3.26864 -8.89554 -6.50992
upperneck -2.98842 -11.5599 12.2791
head 0.772504 -5.69032 4.42184
rclavicle -6.36111e-015 -2.38542e-014
rhumerus -26.5285 18.2431 -89.6563
rradius 28.3441
rwrist -7.97965
rhand -17.6064 2.07995
rfingers 7.12502
rthumb 8.6502 -27.7228
lclavicle -6.36111e-015 -2.38542e-014
lhumerus -17.2225 1.88012 84.6337
lradius 10.8905
lwrist 6.53564
lhand -12.3612 -6.97131
lfingers 7.12502
lthumb 13.7089 22.5571
rfemur 13.2257 -0.827409 29.9801
rtibia 20.1557
rfoot -18.023 -10.7194
rtoes 5.2985
lfemur -22.6819 0.681939 -16.0705
ltibia 40.8454
lfoot -8.67177 -5.93114
ltoes -17.1627
309
root 13.1027 17.3436 -1.98475 182.192 76.3039 -168.833
lowerback 13.8619 0.204401 3.74875
upperback 12.2075 1.61233 0.846719
thorax 5.27174 1.46971 -1.3093
lowerneck -3.20048 -8.84751 -6.42793
upperneck -2.85117 -11.5124 12.2157
head 0.788273 -5.66731 4.39256
rclavicle 6.85807e-015 -2.78299e-015
rhumerus -26.5179 18.3431 -89.8764
rradius 28.4121
rwrist -7.81459
rhand -17.4031 2.08021
rfingers 7.12502
rthumb 8.84637 -27.7144
lclavicle 6.85807e-015 -2.78299e-015
lhumerus -17.6687 1.95234 84.6422
lradius 9.83251
lwrist 6.46165
lhand -12.7843 -6.56829
lfingers 7.12502
lthumb 13.3011 22.9872
rfemur 13.9447 -0.883573 30.0088
rtibia 19.4278
rfoot -17.9472 -10.6707
rtoes 5.22714
lfemur -22.9698 0.844697 -16.1417
ltibia 39.6778
lfoot -8.56883 -5.60071
ltoes -17.6449
310
root 13.2058 17.3344 -1.9945 182.335 76.3821 -168.719
lowerback 13.7352 0.236911 3.71067
upperback 12.1234 1.63356 0.77119
thorax 5.24873 1.47281 -1.36894
lowerneck -3.22723 -8.79272 -6.31712
upperneck -2.59319 -11.4633 12.0837
head 0.848583 -5.63867 4.33113
rclavicle -4.72114e-014 1.2921e-014
rhumerus -26.4843 18.4651 -90.0893
rradius 28.4564
rwrist -7.55007
rhand -17.2133 2.07919
rfingers 7.12502
rthumb 9.02957 -27.7076
lclavicle -4.72114e-014 1.2921e-014
lhumerus -18.1654 2.06543 84.6238
lradius 8.85143
lwrist 6.3776
lhand -13.1486 -6.10806
lfingers 7.12502
lthumb 12.95 23.4701
rfemur 14.6647 -0.876918 30.0748
rtibia 18.6692
rfoot -17.8825 -10.6211
rtoes 5.22391
lfemur -23.2535 0.9966 -16.1724
ltibia 38.5216
lfoot -8.46011 -5.30311
ltoes -17.7784
